<svg width="189" height="63" viewBox="0 0 189 63" fill="none" xmlns="http://www.w3.org/2000/svg">
<path d="M24.3 12.6C22.1 9.09998 20 5.59998 17.9 2.09998L19 2.20001C16.2 6.10001 13.4 9.99999 10.5 13.8L6.20001 19.5C5.50001 20.5 4.69997 21.4 4.09997 22.3C3.79997 22.8 3.60002 23.2 3.40002 23.6C3.30002 24 3.19998 24.4 3.29998 24.8C3.39998 25.7 3.99999 26.7 4.49999 27.8L6.09997 31C7.19997 33.1 8.29999 35.2 9.49999 37.3C11.8 41.5 14.2 45.6 16.8 49.7L15.4 49.6L18.4 46.1L21.5 42.7C23.6 40.4 25.6 38.2 27.8 35.9C26 38.4 24.2 40.9 22.3 43.3L19.5 47L16.7 50.7L16 51.6L15.3 50.6C12.5 46.7 9.89999 42.6 7.49999 38.4C6.29999 36.3 5.09999 34.2 3.99999 32.1L2.29998 28.9C1.79998 27.8 1.10002 26.7 0.900018 25.2C0.800018 24.4 0.899969 23.6 1.09997 22.9C1.29997 22.2 1.69997 21.6 2.09997 21C2.79997 19.9 3.59998 19.1 4.29998 18.1L8.79998 12.5C11.8 8.8 14.9 5.00002 18 1.40002L18.7 0.599976L19.1 1.5C20.9 5.2 22.7 8.89998 24.3 12.6Z" fill="#6F00FF"/>
<path d="M48 47.7C51.2 45.6 54.4 43.5 57.6 41.5L57.3 41.9L57.7 36.1V36.2C57.6 34.1 57.5 32 57.5 29.8L57.3 23.4C57.2 19.2 57.1 14.9 57 10.7L58.1 11.9L51.2 11.1L44.3 10.3L45 10.2L39.5 12.8L40.2 11.8C39.8 17 39.4 22.1 39 27.3C38.6 32.5 38.1 37.6 37.5 42.8L37.4 42.5C39.3 44.4 41.1 46.3 43 48.3C40.9 46.6 38.9 44.9 36.8 43.1L36.7 43V42.8C36.8 37.6 36.9 32.4 37.2 27.2C37.4 22 37.7 16.8 37.9 11.7V11L38.6 10.7L44.1 8.09998L44.4 7.90002H44.7L51.6 8.70001L58.5 9.5L59.6 9.59998V10.7C59.6 14.9 59.6 19.2 59.6 23.4L59.5 29.8C59.5 31.9 59.5 34 59.4 36.2V36.3L58.6 42.1V42.4L58.4 42.5C54.8 44.3 51.4 46 48 47.7Z" fill="#6F00FF"/>
<path d="M74.1 11.3V19.5V27.7C74.1 33.2 74.2 38.7 74.4 44.2L72.4 43.8C73.7 40.9 75 38.1 76.4 35.2C77.8 32.4 79.2 29.6 80.7 26.8C82.2 24 83.7 21.3 85.3 18.6C86.9 15.9 88.5 13.2 90.2 10.5L92.6 6.79999L92.4 11.2L91.8 21.4L91.2 31.6C91 35 90.9 38.4 91 41.8C91.1 45.2 91.3 48.6 91.9 52C91 48.7 90.4 45.3 90.1 41.9C89.8 38.5 89.7 35.1 89.7 31.6C89.7 28.2 89.8 24.8 89.9 21.4L90.2 11.2L92.4 11.9C90.8 14.6 89.2 17.2 87.6 19.9C86 22.6 84.5 25.3 83 28.1C81.5 30.8 80 33.6 78.6 36.4C77.2 39.2 75.8 42 74.4 44.8L72.3 49.1V44.3C72.3 38.8 72.5 33.3 72.8 27.8C72.9 25 73.2 22.3 73.4 19.6C73.5 16.8 73.7 14 74.1 11.3Z" fill="#6F00FF"/>
<path d="M106.2 11.2C106.4 14.3 106.5 17.4 106.5 20.4C106.5 23.5 106.4 26.5 106.3 29.6C106.2 32.6 106 35.7 105.8 38.8C105.6 41.8 105.3 44.9 104.8 48C104.3 44.9 104 41.9 103.8 38.8C103.6 35.7 103.7 32.6 103.8 29.6C103.9 26.5 104.1 23.5 104.6 20.4C104.9 17.3 105.4 14.2 106.2 11.2Z" fill="#6F00FF"/>
<path d="M93.6 23C95.7 21.9 97.8 21 99.9 20L106.2 17.2L112.5 14.4C114.6 13.4 116.7 12.5 118.9 11.6C117.2 13.3 115.4 14.8 113.4 16.1C111.4 17.4 109.4 18.6 107.2 19.5C105 20.5 102.8 21.3 100.5 21.9C98.3 22.5 96 22.9 93.6 23Z" fill="#6F00FF"/>
<path d="M114.8 46C116.8 40.9 118.9 35.8 121 30.8C123.1 25.8 125.3 20.7 127.5 15.7L128.2 14L129.2 15.6C130.9 18.4 132.1 21.4 133.1 24.5C134.1 27.6 134.8 30.7 135.5 33.8C136.9 40 138.3 46.1 141.3 51.5L139.1 52.7C136.4 47.7 132.9 43 128.9 39C124.8 35 120.1 31.6 115 29L113 28L115.1 27.4C119.3 26.3 123.4 24.9 127.5 23.4C131.6 21.9 135.6 20.1 139.5 18.2C135.8 20.5 131.9 22.5 127.9 24.3C123.9 26.1 119.8 27.7 115.6 29L115.7 27.4C121.1 29.9 126.1 33.2 130.4 37.4C134.7 41.5 138.4 46.3 141.3 51.5L139.1 52.7C137.5 49.8 136.3 46.8 135.4 43.7C134.5 40.6 133.8 37.5 133.1 34.4C132.4 31.3 131.8 28.2 130.9 25.2C130 22.2 128.9 19.3 127.4 16.6L129.1 16.5C126.8 21.5 124.4 26.4 122 31.3C119.8 36.2 117.3 41.1 114.8 46Z" fill="#6F00FF"/>
<path d="M153.8 50.1C152.9 47 152.5 43.8 152.3 40.6C152.1 37.4 152.3 34.2 152.6 31C153 27.8 153.6 24.6 154.6 21.6C155.5 18.5 156.7 15.5 158.3 12.7C157.7 15.9 157.1 18.9 156.5 22C156 25.1 155.5 28.2 155.1 31.3C154.7 34.4 154.5 37.5 154.3 40.6C154.1 43.7 154 46.9 153.8 50.1Z" fill="#6F00FF"/>
<path d="M145.4 12.1C147.8 11.6 150.3 11.4 152.8 11.5C155.3 11.6 157.8 11.8 160.2 12.3C162.6 12.8 165 13.5 167.3 14.4C169.6 15.3 171.9 16.4 173.9 17.8C171.4 17.4 169.1 16.8 166.7 16.3C164.3 15.8 162 15.3 159.6 14.8C157.2 14.3 154.9 13.9 152.5 13.5C150.2 13 147.8 12.7 145.4 12.1Z" fill="#6F00FF"/>
<path d="M166.5 26C166.3 28.7 166.1 31.3 165.9 33.9C165.7 36.4 165.6 38.9 165.4 41.4V41.5C164.8 44 164.2 46.5 163.6 49C163 51.5 162.4 54 161.7 56.4L160.9 55L168.2 56.7H168.3H168.4L175.3 59.7L173.7 60.3C175.7 56.3 177.8 52.3 179.9 48.2C182 44.2 184.1 40.2 186.3 36.2L186.7 37.5C180 34 173.6 30 166.5 26ZM166.5 26C173.1 29.1 180.3 32.3 187.5 35.9L188.3 36.3L187.9 37.2C186 41.3 183.9 45.3 182 49.4C180 53.4 178 57.5 175.9 61.5L175.4 62.5L174.3 62L167.5 58.9L167.7 59L160.4 57.1L159.3 56.8L159.6 55.7C160.3 53.2 161.1 50.8 161.8 48.4C162.5 45.9 163.3 43.5 164.1 41.1V41.2C164.5 38.6 164.9 36 165.4 33.4C165.7 30.8 166.1 28.4 166.5 26Z" fill="#6F00FF"/>
</svg>
