<svg width="162" height="59" viewBox="0 0 162 59" fill="none" xmlns="http://www.w3.org/2000/svg">
<path d="M12.9 8.40002C15.6 6.50002 18.5 5.1 21.6 4C24.7 2.9 27.9 2.20002 31.2 1.90002C34.5 1.60002 37.7 1.50002 40.9 1.40002C44.1 1.30002 47.3 1.09998 50.5 0.599976C47.5 1.89998 44.3 2.6 41 3C37.8 3.4 34.5 3.50002 31.4 3.90002C28.2 4.20002 25.1 4.7 22.1 5.5C19 6.2 15.9 7.20002 12.9 8.40002Z" fill="#00FFE0"/>
<path d="M47.9 2.29999C47.1 4.39999 46.1 6.39999 44.9 8.29999C43.7 10.2 42.3 12 40.8 13.7C39.3 15.4 37.7 17 36.1 18.5C34.5 20.1 33 21.6 31.4 23.3C32.2 21.2 33.5 19.3 34.9 17.5C36.3 15.7 37.8 14.1 39.2 12.4C40.7 10.8 42.1 9.10002 43.5 7.40002C45 5.70002 46.4 3.99999 47.9 2.29999Z" fill="#00FFE0"/>
<path d="M39 18.6L29 23.6C25.7 25.3 22.4 27 19.2 28.8C16 30.6 12.7 32.4 9.59998 34.3L0 40.1C2.7 37.5 5.70001 35.2 8.70001 33C11.7 30.8 14.9 28.8 18.2 27C21.5 25.2 24.9 23.5 28.4 22.1C31.8 20.7 35.3 19.5 39 18.6Z" fill="#00FFE0"/>
<path d="M29.8 48.3C30.2 46 30.9 43.8 31.7 41.6C32.5 39.4 33.5 37.3 34.5 35.2C35.6 33.1 36.7 31.1 38 29.2C39.3 27.3 40.7 25.4 42.3 23.7C41.4 25.9 40.4 27.9 39.4 30L36.3 36.2L33.2 42.3C32.1 44.3 31 46.3 29.8 48.3Z" fill="#00FFE0"/>
<path d="M26.5 50.2C28.6 49.7 30.7 49.3 32.9 49.1C35 48.8 37.2 48.7 39.3 48.5C41.4 48.4 43.6 48.3 45.7 48.4C47.9 48.4 50 48.5 52.2 48.8C50.1 49.3 48 49.7 45.8 49.9C43.7 50.2 41.5 50.3 39.4 50.5C37.3 50.6 35.1 50.7 33 50.6C30.9 50.6 28.7 50.5 26.5 50.2Z" fill="#00FFE0"/>
<path d="M44.8 50.5C45.3 48.2 46 46 46.8 43.9C47.6 41.7 48.5 39.7 49.5 37.6C50.5 35.5 51.5 33.5 52.7 31.5C53.9 29.5 55.1 27.6 56.5 25.7C55.8 27.9 55 30 54.1 32.2C53.2 34.3 52.3 36.4 51.3 38.4C50.3 40.4 49.3 42.5 48.2 44.5C47.2 46.6 46.1 48.6 44.8 50.5Z" fill="#00FFE0"/>
<path d="M34.9 29C36.7 27.9 38.5 27 40.4 26.2C42.3 25.4 44.2 24.7 46.2 24.1C48.2 23.5 50.2 23 52.2 22.6C54.2 22.2 56.3 21.9 58.4 21.8C56.5 22.7 54.6 23.4 52.6 24C50.6 24.6 48.7 25.3 46.8 25.9C44.8 26.5 42.9 27 40.9 27.6C38.9 28.2 37 28.7 34.9 29Z" fill="#00FFE0"/>
<path d="M64.5 23.4C64.4 25.9 64.1 28.3 63.6 30.7C63.1 33.1 62.4 35.5 61.6 37.8C60.8 40.1 59.8 42.4 58.7 44.6C58.2 45.7 57.6 46.8 56.9 47.8C56.6 48.3 56.3 48.8 55.9 49.4L55.4 50.2C55.3 50.3 55.3 50.4 55.3 50.5C55.3 50.6 55.6 50.5 55.5 50.4C55.6 50.5 55.4 50.8 55.2 50.6C55 50.4 55.1 50.2 55.1 50.1L55.4 49.2L56 47.5L57.2 44.1C58 41.8 58.8 39.6 59.6 37.3C60.4 35 61.2 32.7 62 30.4C62.9 28 63.7 25.7 64.5 23.4Z" fill="#00FFE0"/>
<path d="M62.3 24.2C63.5 23.1 64.7 22 66 20.9C67.3 19.9 68.5 18.8 69.8 17.8C72.4 15.8 75.1 14 78 12.3L79.3 11.5L79.2 13.1C79 16.6 79 20 78.9 23.4C78.9 26.9 78.9 30.3 79.1 33.7L77.2 33.5L77.6 32.2L77.8 33.2C77.8 33.1 77.6 33 77.2 33.1C76.8 33.1 76.4 33.3 75.9 33.5C74.9 33.8 74 34.2 73 34.6C71.1 35.3 69.2 36.1 67.4 37C65.5 37.9 63.7 38.8 61.9 39.8C60.1 40.8 58.3 41.9 56.6 43C58.2 41.6 59.8 40.4 61.5 39.2C63.2 38 65 36.9 66.8 35.9C68.6 34.9 70.5 34 72.4 33.1C73.4 32.7 74.3 32.3 75.3 31.9C75.8 31.7 76.3 31.5 76.9 31.4C77.2 31.3 77.6 31.3 78 31.4C78.4 31.4 78.9 31.7 79.2 32L79.6 32.4L79.4 32.9L79 34.2L77.4 39.6L77.1 33.9C76.9 30.4 76.8 26.9 76.9 23.4C76.9 19.9 77.1 16.4 77.4 13L78.7 13.8C75.9 15.3 73.1 17 70.3 18.7C68.9 19.6 67.5 20.4 66.2 21.4L62.3 24.2Z" fill="#00FFE0"/>
<path d="M60 36.1C61.2 37.5 62.3 38.9 63.4 40.4C64.5 41.9 65.5 43.3 66.5 44.8C67.5 46.3 68.5 47.8 69.4 49.3C70.4 50.8 71.3 52.4 72.1 54C70.6 52.9 69.3 51.6 68.1 50.2C66.9 48.8 65.8 47.4 64.8 45.9C63.8 44.4 62.9 42.8 62 41.2C61.1 39.6 60.4 37.8 60 36.1Z" fill="#00FFE0"/>
<path d="M85 19.4C85.5 22.4 85.8 25.5 85.9 28.6C86 31.7 86 34.8 85.8 37.8C85.6 40.9 85.3 43.9 84.8 47C84.3 50 83.7 53.1 82.9 56C82.9 52.9 83.1 49.8 83.3 46.8L83.8 37.7L84.3 28.6C84.5 25.6 84.7 22.5 85 19.4Z" fill="#00FFE0"/>
<path d="M71.7 26C73.5 24.5 75.5 23.1 77.5 21.9C79.5 20.6 81.6 19.5 83.8 18.5C86 17.5 88.1 16.5 90.4 15.7C92.6 14.9 94.9 14.2 97.3 13.7C95.3 15 93.1 16.1 91.1 17.2C89 18.3 86.9 19.3 84.8 20.4C82.7 21.4 80.6 22.4 78.4 23.4C76.1 24.2 73.9 25.2 71.7 26Z" fill="#00FFE0"/>
<path d="M97.3 20.9C97.5 23.9 97.5 26.8 97.2 29.8C97 32.8 96.6 35.7 96 38.6C95.4 41.5 94.8 44.4 93.9 47.2C93 50 92 52.8 90.7 55.5C91.2 52.6 91.8 49.7 92.4 46.8C93 43.9 93.5 41.1 94.1 38.2C94.7 35.3 95.1 32.5 95.7 29.6C96.2 26.7 96.7 23.8 97.3 20.9Z" fill="#00FFE0"/>
<path d="M96.2 22.1C97.1 20.6 98.3 19.4 99.6 18.3C100.9 17.2 102.3 16.3 103.8 15.5C105.3 14.7 106.8 14.1 108.4 13.5C110 12.9 111.6 12.5 113.3 12.3C111.9 13.3 110.5 14.1 109.1 15C107.7 15.8 106.2 16.6 104.8 17.3C103.4 18.1 101.9 18.8 100.5 19.6L96.2 22.1Z" fill="#00FFE0"/>
<path d="M95.4 33.6C95.9 32.7 96.6 31.9 97.4 31.2C98.2 30.5 99 29.9 99.8 29.4C100.7 28.9 101.6 28.5 102.5 28.1C103.5 27.8 104.5 27.5 105.5 27.5C104.8 28.3 104 28.9 103.2 29.5C102.4 30.1 101.6 30.6 100.8 31.1C100 31.6 99.1 32.1 98.2 32.5C97.3 32.9 96.4 33.3 95.4 33.6Z" fill="#00FFE0"/>
<path d="M109.9 31.9C108.6 38 106.4 43.9 103.4 49.4L101.2 53.5C101.1 53.7 101.1 53.8 101.1 53.7C101.1 53.7 101.1 53.5 101 53.4C100.9 53.3 100.8 53.2 100.8 53.2L101.7 53.4L104 53.8L108.6 54.6C110.1 54.8 111.7 55.3 113 55.2C113.6 55.2 114.1 55 114.5 54.7C114.9 54.4 115.2 53.8 115.5 53.2C116 51.9 116.5 50.3 117 48.9C118 46 119 43.1 120.1 40.2L120.5 39.1C120.6 38.8 120.8 38.3 120.8 38.1C120.9 37.8 120.8 37.7 120.7 37.5C120.6 37.3 120.4 37.1 120.1 36.9C119.6 36.5 118.9 36.2 118.2 35.8L116.2 34.7C113.5 33.2 110.7 31.7 108.1 30.2C111 31.4 113.8 32.6 116.7 33.8L118.8 34.7C119.5 35 120.2 35.3 121 35.8C121.4 36 121.8 36.3 122 36.8C122.3 37.3 122.4 37.9 122.3 38.4C122.2 38.9 122.1 39.2 122 39.6L121.7 40.7C120.8 43.7 119.8 46.6 118.9 49.6L118.2 51.8C118 52.5 117.7 53.3 117.4 54C117.1 54.8 116.7 55.6 115.9 56.3C115.1 57 114.1 57.3 113.2 57.3C112.3 57.3 111.4 57.2 110.7 57.1L108.4 56.7L103.8 55.9L101.5 55.4L100.9 55.3C100.7 55.3 100.5 55.3 100.1 55.1C99.9 55 99.7 54.9 99.5 54.6C99.3 54.3 99.3 54 99.3 53.8C99.4 53.3 99.5 53.1 99.6 52.9L102 48.9C105.3 43.3 107.9 37.7 109.9 31.9Z" fill="#00FFE0"/>
<path d="M116.3 27.4C116.7 26.4 117.3 25.5 117.9 24.7C118.5 23.9 119.2 23.1 119.9 22.4C120.6 21.7 121.4 21 122.2 20.4C123 19.8 123.9 19.2 124.9 18.8C124.5 19.8 123.9 20.7 123.3 21.5C122.7 22.3 122 23.1 121.3 23.8C120.6 24.5 119.8 25.2 119 25.8C118.2 26.3 117.3 26.9 116.3 27.4Z" fill="#00FFE0"/>
<path d="M129.5 27.1C129.4 29.5 129.3 31.9 129 34.4C128.7 36.8 128.4 39.2 127.9 41.6C127.4 44 126.8 46.4 125.9 48.7C125.5 49.9 125 51 124.5 52.1L123.7 53.8L122.8 55.4L121.5 54.4C122.4 53.7 123.6 53.3 124.6 53.1C125.7 52.9 126.7 53 127.7 53C128.7 53 129.7 53.1 130.7 53.1C131.7 53.1 132.7 53 133.6 52.7C132.7 53.2 131.7 53.5 130.7 53.7C129.7 53.9 128.7 54 127.7 54C126.7 54.1 125.7 54.2 124.8 54.4C123.9 54.6 123.1 55 122.5 55.6L119.3 58.4L121.2 54.5C122.2 52.4 123.1 50.2 123.9 47.9C124.7 45.7 125.3 43.4 125.9 41.1C127.4 36.6 128.3 31.8 129.5 27.1Z" fill="#00FFE0"/>
<path d="M139.7 25.4C140.6 27.7 141.2 30.1 141.6 32.5C142 34.9 142.2 37.4 142.3 39.8C142.4 42.2 142.4 44.6 142.3 47.1C142.2 49.5 142.1 51.9 141.8 54.4C141.3 52 141 49.6 140.8 47.2C140.6 44.8 140.4 42.4 140.3 40L140 32.8L139.7 25.4Z" fill="#00FFE0"/>
<path d="M148.6 53.1C148.4 49.9 148.3 46.6 148.1 43.3L147.8 33.6L147.7 31.2V30.6L147.6 30C147.6 29.5 147.6 29 147.8 28.5C147.9 28 148.3 27.4 148.7 27.1C149.1 26.7 149.5 26.5 149.8 26.2C150.5 25.8 151.3 25.4 152 25L153.1 24.4C153.4 24.2 153.9 23.9 154.6 23.9C155.4 23.9 156 24.2 156.3 24.5L157.3 25.2L161.3 28L161.8 28.4L161.7 29L160.7 33.9C160.4 35.5 160.1 37.2 159.7 38.8L158.7 43.7C158.3 45.3 158 47 157.6 48.6L157.5 48.8L157.3 48.9C155.1 49.9 152.8 50.8 150.5 51.7C152.6 50.5 154.7 49.3 156.9 48.1L156.7 48.4C156.9 46.7 157.2 45.1 157.4 43.4L158.1 38.4C158.3 36.7 158.6 35.1 158.9 33.4L159.7 28.4L160.1 29.4L156.1 26.7L155.1 26C154.8 25.8 154.6 25.7 154.6 25.7C154.5 25.7 154.2 25.8 153.8 26L152.8 26.6C152.1 27 151.4 27.3 150.7 27.7C150 28.1 149.6 28.5 149.5 28.9C149.4 29.2 149.4 29.5 149.4 29.8V30.4V31V33.5C149.4 36.8 149.2 40 149.1 43.3C149 46.6 148.9 49.8 148.6 53.1Z" fill="#00FFE0"/>
<path d="M23 3C22.3 7.4 21.3 11.7 20.2 16C19.1 20.3 17.8 24.5 16.4 28.8C15 33 13.4 37.2 11.7 41.3C10 45.4 8.1 49.5 6 53.4C7.3 49.2 8.80001 45 10.2 40.8L14.5 28.2L18.7 15.6C20.1 11.4 21.5 7.2 23 3Z" fill="#00FFE0"/>
</svg>
